<?xml version="1.0" encoding="UTF-8" standalone="no"?>
<svg
   xmlns:dc="http://purl.org/dc/elements/1.1/"
   xmlns:cc="http://creativecommons.org/ns#"
   xmlns:rdf="http://www.w3.org/1999/02/22-rdf-syntax-ns#"
   xmlns:svg="http://www.w3.org/2000/svg"
   xmlns="http://www.w3.org/2000/svg"
   xmlns:sodipodi="http://sodipodi.sourceforge.net/DTD/sodipodi-0.dtd"
   xmlns:inkscape="http://www.inkscape.org/namespaces/inkscape"
   width="7in"
   height="7in"
   viewBox="0 0 672.00001 672.00003"
   version="1.1"
   xml:space="preserve"
   style="clip-rule:evenodd;fill-rule:evenodd;stroke-linecap:round;stroke-linejoin:round;stroke-miterlimit:1.5"
   id="svg947"
   sodipodi:docname="logo2.svg"
   inkscape:version="0.92.3 (2405546, 2018-03-11)"
   inkscape:export-filename="/home/iain/Desktop/crypto/coins/cointemplate/template-qt-wallet/v0.6.3/anonwallet/res/logobig.png"
   inkscape:export-xdpi="73.14286"
   inkscape:export-ydpi="73.14286"><metadata
   id="metadata953"><rdf:RDF><cc:Work
       rdf:about=""><dc:format>image/svg+xml</dc:format><dc:type
         rdf:resource="http://purl.org/dc/dcmitype/StillImage" /><dc:title></dc:title></cc:Work></rdf:RDF></metadata><defs
   id="defs951">
        
        
        
        
        
        
        
        
    
            
            
            
        <style
   id="style48">.cls-1{fill:#221f1f;}.cls-2{fill:#a8aaad;}.cls-3{fill:#ec2227;}</style><style
   id="style132">.cls-1{fill:#221f1f;}.cls-2{fill:#a8aaad;}.cls-3{fill:#ec2227;}</style></defs><sodipodi:namedview
   pagecolor="#ffffff"
   bordercolor="#666666"
   borderopacity="1"
   objecttolerance="10"
   gridtolerance="10"
   guidetolerance="10"
   inkscape:pageopacity="0"
   inkscape:pageshadow="2"
   inkscape:window-width="1680"
   inkscape:window-height="1022"
   id="namedview949"
   showgrid="false"
   inkscape:zoom="0.21283914"
   inkscape:cx="230.43145"
   inkscape:cy="487.41801"
   inkscape:window-x="1680"
   inkscape:window-y="0"
   inkscape:window-maximized="1"
   inkscape:current-layer="svg947"
   units="in" />
    <g
   id="g906"
   transform="matrix(8.0134463,-0.61542838,0.57707593,7.5140325,-224.79791,-183.45367)">
            <path
   inkscape:connector-curvature="0"
   id="path904"
   style="fill:#403c3c;stroke:#676767;stroke-width:1.55999994px"
   d="m 101.667,55.665 c 0,-4.644 -3.536,-8.415 -7.891,-8.415 H 34.391 c -4.355,0 -7.891,3.771 -7.891,8.415 v 32.67 c 0,4.644 3.536,8.415 7.891,8.415 h 59.385 c 4.355,0 7.891,-3.771 7.891,-8.415 z" />
        </g><g
   id="g910"
   transform="matrix(3.8405464,-0.28081188,0.29027336,3.9699463,-22.993991,110.1031)">
            <rect
   id="rect908"
   style="fill:#989898"
   height="10.333"
   width="123.333"
   y="15.958"
   x="30.333" />
        </g><g
   id="g914"
   transform="matrix(3.8443014,-0.22365281,0.21741732,3.7371369,-3.322253,118.34862)">
            <rect
   id="rect912"
   style="fill:#d4d4d4"
   height="10.333"
   width="123.333"
   y="15.958"
   x="30.333" />
        </g><g
   id="g918"
   transform="matrix(8.3146924,0,0,7.5028043,-200.36838,-189.44693)">
            <path
   inkscape:connector-curvature="0"
   id="path916"
   style="fill:#545454;stroke:#676767;stroke-width:1.54999995px"
   d="m 101.667,55.665 c 0,-4.644 -3.403,-8.415 -7.594,-8.415 h -59.98 c -4.191,0 -7.593,3.771 -7.593,8.415 v 32.67 c 0,4.644 3.402,8.415 7.593,8.415 h 59.98 c 4.191,0 7.594,-3.771 7.594,-8.415 z" />
        </g><g
   transform="matrix(0.13492995,0,0,0.13731406,123.30027,138.8355)"
   id="g930">
                <path
   d="m 408.79,544.347 c -4.781,393.34 11.42,829.733 222.972,1280.253 233.27,496.77 562.438,768.91 880.738,902.9 400.43,-203.47 700.25,-512.61 875.74,-926.93 C 2565.08,1390.14 2623.25,986.361 2613.93,546.64 2401.04,668.826 2190.35,711.166 1980.91,665.398 1800.1,625.888 1619.67,480.693 1504.39,342.5 1342.48,544.925 1094.45,674.584 905.24,674.128 603.662,673.4 408.79,544.347 408.79,544.347 Z"
   style="fill:#535050;stroke:#231f20;stroke-width:113.56999969px;stroke-linecap:butt;stroke-miterlimit:1.41420996"
   id="path928"
   inkscape:connector-curvature="0" />
            </g><g
   transform="matrix(0.12668053,0,0,0.13183216,134.79779,148.99931)"
   id="g934"
   style="fill:#ffffff">
                <path
   d="m 395.114,579.927 c -4.781,393.341 25.096,794.153 236.648,1244.673 233.27,496.77 562.438,768.91 880.738,902.9 400.43,-203.47 677.91,-509.43 866.26,-919.86 157.91,-344.09 267.28,-776.03 257.97,-1215.749 -212.9,122.186 -446.38,119.275 -655.82,73.507 C 1800.1,625.888 1626.34,498.787 1511.05,360.594 1349.14,563.019 1067.1,686.858 877.887,686.402 576.309,685.674 395.114,579.927 395.114,579.927 Z"
   style="fill:#ffffff"
   id="path932"
   inkscape:connector-curvature="0" />
            </g><g
   inkscape:groupmode="layer"
   id="layer1"
   inkscape:label="Belt"
   style="display:inline"
   transform="translate(0,547.00007)"><g
     style="clip-rule:evenodd;fill-rule:evenodd;stroke-linecap:round;stroke-linejoin:round;stroke-miterlimit:1.5"
     transform="matrix(3.6074755,0,0,3.1676851,24.481313,-551.22181)"
     id="g922">
            <path
   d="m 174.197,108.212 c 0,-3.207 -2.286,-5.81 -5.101,-5.81 h -31.213 c -2.816,0 -5.102,2.603 -5.102,5.81 v 13.64 c 0,3.206 2.286,5.809 5.102,5.809 h 31.213 c 2.815,0 5.101,-2.603 5.101,-5.809 z"
   style="fill:#545454;stroke:#676767;stroke-width:5.17999983px"
   id="path920"
   inkscape:connector-curvature="0" />
        </g><g
     style="clip-rule:evenodd;fill-rule:evenodd;stroke-linecap:round;stroke-linejoin:round;stroke-miterlimit:1.5"
     transform="matrix(4.2945691,0,0,4.3255294,-62.20745,-679.73088)"
     id="g926">
            <circle
   cx="140.291"
   cy="113.78"
   r="5.006"
   style="fill:#ffffff"
   id="circle924" />
        </g></g>
<g
   id="g168"
   transform="translate(167.2096,191.51957)"><path
     id="path138"
     d="m 219.06,63.11 -0.41,0.56 -3.87,5.4 A 99.34,99.34 0 0 1 227.6,79.9 98.44,98.44 0 0 1 100,229 l -3.87,5.39 -0.41,0.57 A 105.79,105.79 0 1 0 219.06,63.11 Z"
     class="cls-1"
     inkscape:connector-curvature="0"
     style="fill:#221f1f" /><path
     id="path140"
     d="m 76,207.69 1.27,-1.77 A 98.45,98.45 0 0 1 158,51.07 98.92,98.92 0 0 1 185.66,55 l 1.27,-1.77 3.24,-4.52 A 105.8,105.8 0 0 0 72.8,212.2 Z"
     class="cls-1"
     inkscape:connector-curvature="0"
     style="fill:#221f1f" /><polygon
     id="polygon142"
     points="168.43,134.06 147.69,162.91 173.59,169.22 "
     class="cls-2"
     style="fill:#a8aaad" /><path
     id="path144"
     d="M 96.4,179.33 67.94,173 a 92.7,92.7 0 0 0 12.72,28.27 z"
     class="cls-2"
     inkscape:connector-curvature="0"
     style="fill:#a8aaad" /><path
     id="path146"
     d="M 178.12,199.15 157,194 h -0.06 l -4.32,-1.1 -22.76,-5.54 -26.77,37.28 a 93.15,93.15 0 0 0 81.85,14 z"
     class="cls-2"
     inkscape:connector-curvature="0"
     style="fill:#a8aaad" /><path
     id="path148"
     d="m 211.63,73.45 -19.71,27.45 19.64,124.69 a 93,93 0 0 0 0.07,-152.14 z"
     class="cls-2"
     inkscape:connector-curvature="0"
     style="fill:#a8aaad" /><path
     id="path150"
     d="M 66.55,144.43 114,154.84 182.33,59.66 A 93.1,93.1 0 0 0 65.1,144.09 Z"
     class="cls-2"
     inkscape:connector-curvature="0"
     style="fill:#a8aaad" /><path
     id="path152"
     d="m 206.85,56.09 -4.14,5.76 -25.36,35.33 -4,-1 25.88,-36.06 4.17,-5.8 -6.23,-2.72 -4.23,5.89 L 117.13,163.06 65,151.62 a 90.66,90.66 0 0 0 1.27,13.47 l 42.61,9.49 L 82,212 l -4.24,5.89 c 1.47,1.73 3,3.4 4.57,5 l 4.17,-5.8 29.24,-40.73 4,1 -30.47,42.52 -4.14,5.77 q 2.41,2.31 5,4.47 l 4.11,-5.73 32.54,-45.39 0.82,0.2 26.8,6.53 4.34,1.1 25.8,6.28 7.45,43 a 92.42,92.42 0 0 0 12.82,-6.21 l -20.62,-130.84 24.38,-34 4.11,-5.72 z m -71.49,111.39 37.71,-52.48 9.37,63.94 z"
     class="cls-3"
     inkscape:connector-curvature="0"
     style="fill:#ec2227" /></g></svg>